<svg width="669" height="731" viewBox="0 0 669 731" fill="none" xmlns="http://www.w3.org/2000/svg">
<path d="M311.181 504H262.329C260.913 504 260.205 503.292 260.205 501.876L261.054 203.026C261.054 201.893 261.621 201.327 262.753 201.327H402.089C403.505 201.327 404.213 201.893 404.213 203.026V252.091C404.213 253.224 403.647 253.79 402.514 253.79H313.305V321.334H402.514C403.647 321.334 404.213 322.042 404.213 323.458L404.638 372.735C404.638 373.868 403.93 374.435 402.514 374.435H313.305V501.876C313.305 503.292 312.597 504 311.181 504Z" fill="white"/>
<path d="M669 365.5C669 550.239 519.239 700 334.5 700C149.761 700 0 550.239 0 365.5C0 180.761 149.761 31 334.5 31C519.239 31 669 180.761 669 365.5ZM67.9846 365.5C67.9846 512.692 187.308 632.015 334.5 632.015C481.692 632.015 601.015 512.692 601.015 365.5C601.015 218.308 481.692 98.9846 334.5 98.9846C187.308 98.9846 67.9846 218.308 67.9846 365.5Z" fill="white"/>
</svg>
